<svg width="35" height="41" viewBox="0 0 35 41" fill="none" xmlns="http://www.w3.org/2000/svg">
<path d="M17.3476 0.0166016C23.485 0.0166016 28.4235 4.84618 28.4235 10.8086V13.8753C31.8682 14.9505 34.3781 18.0689 34.3781 21.7934V31.6672C34.3781 36.2782 30.5553 40.0166 25.8425 40.0166H8.91565C4.20077 40.0166 0.378052 36.2782 0.378052 31.6672V21.7934C0.378052 18.0689 2.88995 14.9505 6.33262 13.8753V10.8086C6.35295 4.84618 11.2914 0.0166016 17.3476 0.0166016ZM17.3679 22.7852C16.3924 22.7852 15.5998 23.5603 15.5998 24.5143V28.9265C15.5998 29.9003 16.3924 30.6755 17.3679 30.6755C18.3637 30.6755 19.1563 29.9003 19.1563 28.9265V24.5143C19.1563 23.5603 18.3637 22.7852 17.3679 22.7852ZM17.3882 3.49469C13.2627 3.49469 9.90943 6.75416 9.88911 10.7689V13.444H24.867V10.8086C24.867 6.77403 21.5137 3.49469 17.3882 3.49469Z" fill="#FF0000"/>
</svg>
