<svg width="37" height="41" viewBox="0 0 37 41" fill="none" xmlns="http://www.w3.org/2000/svg">
<path d="M32.7861 13.7529C33.1849 13.7529 33.5466 13.9269 33.8326 14.2209C34.0991 14.5349 34.2333 14.9249 34.1944 15.3369C34.1944 15.4729 33.1284 28.9528 32.5196 34.6267C32.1384 38.1087 29.8937 40.2226 26.5268 40.2806C23.9378 40.3386 21.4072 40.3586 18.9156 40.3586C16.2702 40.3586 13.6832 40.3386 11.1721 40.2806C7.91794 40.2026 5.67135 38.0507 5.30956 34.6267C4.68323 28.9328 3.63677 15.4729 3.61731 15.3369C3.59786 14.9249 3.73013 14.5349 3.99856 14.2209C4.26309 13.9269 4.64433 13.7529 5.04502 13.7529H32.7861ZM23.0374 0.358643C24.8055 0.358643 26.385 1.59263 26.8421 3.35261L27.1688 4.8126C27.4334 6.00259 28.4643 6.84458 29.6508 6.84458H35.4822C36.2603 6.84458 36.908 7.49057 36.908 8.31256V9.07256C36.908 9.87455 36.2603 10.5405 35.4822 10.5405H2.33569C1.5557 10.5405 0.907978 9.87455 0.907978 9.07256V8.31256C0.907978 7.49057 1.5557 6.84458 2.33569 6.84458H8.16711C9.35168 6.84458 10.3826 6.00259 10.6491 4.8146L10.9544 3.45061C11.4291 1.59263 12.991 0.358643 14.7785 0.358643H23.0374Z" fill="#FF0000"/>
</svg>
