<svg width="37" height="37" viewBox="0 0 37 37" fill="none" xmlns="http://www.w3.org/2000/svg">
<path d="M34.4658 32.8887C35.58 32.8887 36.4862 33.8067 36.4862 34.9354C36.4862 36.0663 35.58 36.9822 34.4658 36.9822H23.0456C21.9314 36.9822 21.0251 36.0663 21.0251 34.9354C21.0251 33.8067 21.9314 32.8887 23.0456 32.8887H34.4658ZM26.5459 2.38031L29.4959 4.72375C30.7056 5.66972 31.5121 6.91669 31.788 8.22816C32.1064 9.67077 31.7668 11.0876 30.8118 12.3131L13.239 35.038C12.4325 36.07 11.244 36.6504 9.97062 36.6719L2.96698 36.7579C2.58497 36.7579 2.26662 36.4999 2.18173 36.1345L0.589992 29.2331C0.314091 27.9647 0.589992 26.6532 1.39647 25.6427L13.8545 9.51813C14.0667 9.26013 14.4487 9.21928 14.7034 9.41063L19.9455 13.5815C20.2851 13.861 20.752 14.0115 21.2401 13.947C22.2801 13.818 22.9804 12.872 22.8743 11.8616C22.8106 11.3456 22.556 10.9156 22.2164 10.5931C22.1103 10.5071 17.1228 6.5082 17.1228 6.5082C16.8045 6.25021 16.7408 5.77722 16.9955 5.45688L18.9692 2.89629C20.7944 0.552851 23.9779 0.337857 26.5459 2.38031Z" fill="#04B500"/>
</svg>
