<svg width="35" height="41" viewBox="0 0 35 41" fill="none" xmlns="http://www.w3.org/2000/svg">
<path d="M17.1346 0.5979C21.8698 0.5979 26.0542 3.52206 27.5988 7.85364C27.7613 8.29097 27.7207 8.76806 27.5175 9.18552C27.3142 9.60297 26.9505 9.92103 26.5013 10.0622C25.5868 10.3782 24.5707 9.90314 24.2252 8.98872C23.1887 6.04467 20.3456 4.07668 17.1752 4.07668C13.0273 4.07668 9.67611 7.33878 9.65376 11.3324V14.016L9.62937 14.02H25.6396C30.3545 14.02 34.1772 17.7592 34.1772 22.3711V32.2468C34.1772 36.8587 30.3545 40.5979 25.6396 40.5979H8.71281C3.99996 40.5979 0.177246 36.8587 0.177246 32.2468V22.3711C0.177246 18.5782 2.77856 15.4115 6.31879 14.3937L6.09727 14.4196V11.3722C6.13792 5.43042 11.0784 0.5979 17.1346 0.5979ZM17.1671 23.363C16.1916 23.363 15.399 24.1383 15.399 25.0925V29.5056C15.399 30.4796 16.1916 31.2549 17.1671 31.2549C18.1629 31.2549 18.9555 30.4796 18.9555 29.5056V25.0925C18.9555 24.1383 18.1629 23.363 17.1671 23.363Z" fill="#14FF00"/>
</svg>
