<svg width="81" height="52" viewBox="0 0 81 52" fill="none" xmlns="http://www.w3.org/2000/svg">
<path d="M17.6562 8.88672C17.5781 9.00391 17.5 9.43359 17.4219 10.1758C17.3828 10.8789 17.3438 11.8555 17.3047 13.1055C17.3047 14.3555 17.3047 15.8789 17.3047 17.6758L17.3633 39.2969C17.3633 41.9141 16.9531 44.1602 16.1328 46.0352C15.3125 47.9492 14.1602 49.3945 12.6758 50.3711C11.2305 51.3867 9.47266 51.8945 7.40234 51.8945C5.44922 51.8945 3.76953 51.4648 2.36328 50.6055C0.957031 49.7461 0.253906 48.7109 0.253906 47.5C0.253906 46.7578 0.488281 46.1719 0.957031 45.7422C1.38672 45.3125 1.97266 45.0977 2.71484 45.0977C3.30078 45.0977 3.86719 45.2148 4.41406 45.4492C4.96094 45.6836 5.52734 46.0938 6.11328 46.6797L9.45312 50.0781L7.05078 49.1992C8.14453 49.3555 9.00391 49.2188 9.62891 48.7891C10.2539 48.3594 10.7031 47.5586 10.9766 46.3867C11.25 45.2148 11.3867 43.5938 11.3867 41.5234V17.6172C11.3867 15.9766 11.3672 14.5508 11.3281 13.3398C11.3281 12.1289 11.3086 11.1328 11.2695 10.3516C11.2305 9.57031 11.1719 9.08203 11.0938 8.88672L7.05078 8.06641L7.22656 5.60547H21.1133L21.2891 8.06641L17.6562 8.88672ZM37.3742 40.4688C34.4836 40.4688 32.0812 40.0586 30.1672 39.2383C28.2922 38.3789 26.8859 37.2461 25.9484 35.8398C25.0109 34.4336 24.5422 32.9102 24.5422 31.2695C24.5422 29.8242 24.9133 28.3984 25.6555 26.9922C26.4367 25.5859 27.6672 24.2383 29.3469 22.9492C31.0656 21.6211 33.3508 20.3906 36.2023 19.2578C38.468 18.0859 40.2453 16.9336 41.5344 15.8008C42.8625 14.668 43.8 13.5352 44.3469 12.4023C44.9328 11.2305 45.2258 9.96094 45.2258 8.59375C45.2258 6.95312 44.8352 5.74219 44.0539 4.96094C43.2727 4.14062 42.3547 3.73047 41.3 3.73047C39.9719 3.73047 38.8391 4.23828 37.9016 5.25391C37.0031 6.26953 36.5539 7.75391 36.5539 9.70703C36.5539 10.8398 36.6906 11.9727 36.9641 13.1055C37.2375 14.1992 37.6672 15.3516 38.2531 16.5625C38.8781 17.7344 39.6594 19.0234 40.5969 20.4297C41.5344 21.8359 42.6477 23.418 43.9367 25.1758C45.8508 27.7148 47.6281 29.8242 49.2687 31.5039C50.9484 33.1836 52.5891 34.4531 54.1906 35.3125C55.8312 36.1328 57.5109 36.543 59.2297 36.543C60.2453 36.543 61.2023 36.3867 62.1008 36.0742C62.9992 35.7227 63.8977 35.2344 64.7961 34.6094L66.1437 36.25C65.1281 37.6172 63.8391 38.6719 62.2766 39.4141C60.7141 40.1172 58.9562 40.4688 57.0031 40.4688C54.6984 40.4688 52.55 40.0391 50.5578 39.1797C48.6047 38.2812 46.6906 36.9141 44.8156 35.0781C42.9406 33.2422 40.968 30.9375 38.8977 28.1641C37.0617 25.5859 35.5578 23.3594 34.3859 21.4844C33.2141 19.6094 32.3547 17.8906 31.8078 16.3281C31.3 14.7266 31.0461 13.0859 31.0461 11.4062C31.0461 9.41406 31.4953 7.61719 32.3937 6.01562C33.2922 4.41406 34.5227 3.16406 36.0852 2.26562C37.6867 1.32812 39.5031 0.859375 41.5344 0.859375C44.1125 0.859375 46.2023 1.54297 47.8039 2.91016C49.4055 4.23828 50.2062 6.09375 50.2062 8.47656C50.2062 10.0781 49.7961 11.6016 48.9758 13.0469C48.1555 14.4531 46.8273 15.8398 44.9914 17.207C43.1945 18.5742 40.7922 20 37.7844 21.4844C35.1672 22.7734 33.3508 24.1211 32.3352 25.5273C31.3586 26.8945 30.8703 28.3984 30.8703 30.0391C30.8703 31.3281 31.1828 32.4805 31.8078 33.4961C32.4719 34.4727 33.4289 35.2344 34.6789 35.7812C35.9289 36.3281 37.4328 36.6016 39.1906 36.6016C41.4172 36.6016 43.4094 36.1914 45.1672 35.3711C46.9641 34.5117 48.5656 33.125 49.9719 31.2109C51.4172 29.2578 52.7062 26.6992 53.8391 23.5352L49.7375 22.8906L49.9133 20.4297L62.5695 20.3711L62.6867 22.832L58.5852 23.5352C56.7102 27.2461 54.718 30.3711 52.6086 32.9102C50.5383 35.4102 48.2531 37.3047 45.7531 38.5938C43.2531 39.8438 40.4602 40.4688 37.3742 40.4688ZM76.8969 8.88672C76.8187 9.00391 76.7406 9.43359 76.6625 10.1758C76.6234 10.8789 76.5844 11.8555 76.5453 13.1055C76.5453 14.3555 76.5453 15.8789 76.5453 17.6758L76.6039 39.2969C76.6039 41.9141 76.1937 44.1602 75.3734 46.0352C74.5531 47.9492 73.4008 49.3945 71.9164 50.3711C70.4711 51.3867 68.7133 51.8945 66.643 51.8945C64.6898 51.8945 63.0102 51.4648 61.6039 50.6055C60.1977 49.7461 59.4945 48.7109 59.4945 47.5C59.4945 46.7578 59.7289 46.1719 60.1977 45.7422C60.6273 45.3125 61.2133 45.0977 61.9555 45.0977C62.5414 45.0977 63.1078 45.2148 63.6547 45.4492C64.2016 45.6836 64.768 46.0938 65.3539 46.6797L68.6937 50.0781L66.2914 49.1992C67.3852 49.3555 68.2445 49.2188 68.8695 48.7891C69.4945 48.3594 69.9437 47.5586 70.2172 46.3867C70.4906 45.2148 70.6273 43.5938 70.6273 41.5234V17.6172C70.6273 15.9766 70.6078 14.5508 70.5687 13.3398C70.5687 12.1289 70.5492 11.1328 70.5102 10.3516C70.4711 9.57031 70.4125 9.08203 70.3344 8.88672L66.2914 8.06641L66.4672 5.60547H80.3539L80.5297 8.06641L76.8969 8.88672Z" fill="black"/>
</svg>
